<svg xmlns="http://www.w3.org/2000/svg" width="16" height="16" viewBox="0 0 16 16">
  <path fill="#1565C0" fill-rule="evenodd" d="M9.00839517,8.05926368 C9.04165527,8.18383091 9.05938573,8.31474017 9.05938573,8.44979054 C9.05938573,9.28368398 8.38338154,9.95968817 7.54948811,9.95968817 C6.71559468,9.95968817 6.03959049,9.28368398 6.03959049,8.44979054 C6.03959049,7.61589711 6.71559468,6.93989292 7.54948811,6.93989292 C7.68494994,6.93989292 7.81624531,6.95773157 7.94115325,6.99118788 L9.08658484,5.84575633 L8.63199343,3.57279944 C8.58248989,3.3252817 8.65996466,3.06939994 8.83845223,2.89091237 L11.5075994,0.221765249 C11.9339665,-0.20460185 12.6634641,0.0162722481 12.781717,0.607537029 L13.2168413,2.78315867 L15.392463,3.21828299 C15.9837278,3.33653595 16.2046019,4.06603355 15.7782347,4.49240063 L13.1090876,7.16154774 C12.9306001,7.34003535 12.6747183,7.41751008 12.4272006,7.36800654 L10.1542437,6.91341517 L9.00839517,8.05926368 Z M12.2762387,2.83002496 L11.9416504,1.02308237 L9.52459717,3.44114267 L9.88562012,5.15253793 L12.2762387,2.83002496 Z M10.9022522,6.18427622 L12.6633606,6.48676645 L14.9743347,4.09666025 L13.3115234,3.75937837 L10.9022522,6.18427622 Z M7.5,1.0016253 C7.71797903,1.0016253 8,1.25702691 8,1.49927866 C8,1.7415304 7.72218082,1.99927866 7.5,1.99927866 C4.16442628,1.99927866 1,4.28618244 1,8.49927866 C1,12.7123749 3.71073191,14.9992787 7.5,14.9992787 C11.2892681,14.9992787 14.0027161,12.3315669 14.0027161,8.49927866 C14.0027161,8.1882435 14.3923468,7.99927866 14.5,7.99927866 C14.6076532,7.99927866 14.9731654,8.21504757 14.9731654,8.49927866 C14.9731654,12.6687458 11.6694672,15.9992787 7.5,15.9992787 C3.33053285,15.9992787 7.38904262e-15,13.1305492 7.10542736e-15,8.49927866 C7.10542736e-15,3.8680081 3.33053285,1.0016253 7.5,1.0016253 Z M6.72834331,3.99927866 C7.03425257,3.91756437 7.23112986,4.31514848 7.23112986,4.49927866 C7.23112986,4.68340883 7.14065529,4.93205197 6.72999954,4.99927866 C5.33930899,5.22694264 4,6.71693002 4,8.49927866 C4,10.7570301 5.41711426,11.9992787 7.5,11.9992787 C9.58288574,11.9992787 10.7123215,10.6560412 11,9.26867216 C11.0845281,8.86102363 11.3009354,8.79206751 11.5,8.79206751 C11.6990646,8.79206751 12.0845281,8.86102363 12,9.26867216 C11.5679364,11.3523579 10.0025635,12.9992787 7.5,12.9992787 C4.99743652,12.9992787 3,10.9956165 3,8.49927866 C3,6.00294077 4.87121582,4.26872417 6.72834331,3.99927866 Z" transform="rotate(180 8 8)"/>
</svg>
