<svg xmlns="http://www.w3.org/2000/svg" width="128" height="128" viewBox="0 0 128 128">
  <path fill="#1565C0" fill-rule="evenodd" d="M71.2537334,65.4164901 C71.5236838,66.4275938 71.6675903,67.4901753 71.6675903,68.5863699 C71.6675903,75.3550256 66.1809081,80.8421053 59.4127425,80.8421053 C52.644577,80.8421053 47.1578947,75.3550256 47.1578947,68.5863699 C47.1578947,61.8177142 52.644577,56.3306345 59.4127425,56.3306345 C60.5121972,56.3306345 61.5778356,56.4754296 62.5916314,56.7469922 L71.8883476,47.4496029 L68.1987276,29.0001679 C67.7969398,26.9910833 68.4257517,24.9141086 69.8744181,23.4653373 L91.5381333,1.80005331 C94.998675,-1.66073917 100.919528,0.132080721 101.87931,4.93133637 L105.410928,22.5907079 L123.069021,26.1225822 C127.867929,27.0824333 129.660619,33.0037152 126.200077,36.4645076 L104.536362,58.1297915 C103.087696,59.5785631 101.010871,60.2074202 99.0019324,59.8056034 L80.5538335,56.1157164 L71.2537334,65.4164901 Z M97.776674,22.9711183 L95.0972294,7.62087302 L74.8497556,28.0381511 L77.8996419,42.4396967 L97.776674,22.9711183 Z M85.7256393,50.6302628 L100.494498,53.3295096 L120.839379,33.3020996 L106.179401,30.5146162 L85.7256393,50.6302628 Z M53.8388133,27.0670921 C56.2869659,26.4133779 57.8625495,28.5819096 57.8625495,30.054951 C57.8625495,31.5279924 57.1252386,33.2561437 53.8388133,33.7939573 C42.7092953,35.6152691 26.9361837,50.1512758 26.9361837,67.4282829 C26.9361837,87.5990245 40.3661524,101.062609 60.5644707,101.062609 C80.7184549,101.062609 91.8905035,85.2541002 94.1927578,74.155148 C94.8692256,70.8939598 96.3883546,70.3423109 97.9814427,70.3423109 C99.5745308,70.3423109 101.594883,70.8939598 100.918415,74.155148 C97.4606659,90.824634 84.1416273,107.789474 60.5644707,107.789474 C37.0570995,107.789474 20.2105263,90.9382331 20.2105263,67.4282829 C20.2105263,43.917101 38.9548481,31.0414607 53.8388133,27.0670921 Z M60.6247952,6.73684211 C62.3684323,6.73684211 63.9928393,8.16724918 63.9928393,10.1052632 C63.9928393,12.0432771 62.4020428,13.4736842 60.6247952,13.4736842 C33.943191,13.4736842 6.76774599,33.6636513 6.76774599,67.3684211 C6.76774599,101.073191 30.3140421,121.263158 60.6247952,121.263158 C90.9355482,121.263158 114.513502,98.026727 114.513502,67.3684211 C114.513502,64.8801398 117.020417,64 117.881546,64 C118.742675,64 121.263158,65.0945724 121.263158,67.3684211 C121.263158,100.724158 93.9768004,128 60.6247952,128 C27.2727899,128 2.26866827e-15,104.418586 0,67.3684211 C0,30.3182566 27.2727899,6.73684211 60.6247952,6.73684211 Z" transform="rotate(180 64 64)"/>
</svg>
